<svg width="480" height="480" viewBox="0 0 480 480" fill="none" xmlns="http://www.w3.org/2000/svg">
<g clip-path="url(#clip0_752_54098)">
<rect width="480" height="480" fill="#CE349A"/>
<rect width="480" height="480" fill="white" fill-opacity="0.8"/>
<path d="M480 40C480 172.548 372.548 280 240 280C107.452 280 -2.11239e-05 172.548 -9.53612e-06 40L480 40Z" fill="#FF5500"/>
<path d="M0 440C0 307.452 107.452 200 240 200C372.548 200 480 307.452 480 440H0Z" fill="#8E00E6"/>
<path fill-rule="evenodd" clip-rule="evenodd" d="M372.712 240C334.7 265.274 289.069 280 240 280C190.93 280 145.3 265.274 107.288 240C145.3 214.726 190.93 200 240 200C289.07 200 334.7 214.726 372.712 240Z" fill="#CE349A"/>
<path d="M237.197 235.976V228.65H230.729V231.642H234.095V234.348C233.347 234.942 232.093 235.184 230.817 235.184C227.583 235.184 225.581 233.028 225.581 230.19C225.581 227.462 227.583 225.196 230.575 225.196C232.401 225.196 233.721 225.9 234.645 226.868L236.867 224.668C235.393 223.084 233.281 222.116 230.575 222.116C225.779 222.116 222.369 225.724 222.369 230.19C222.369 234.766 225.977 238.264 230.839 238.264C233.325 238.264 235.789 237.516 237.197 235.976ZM238.181 232.5C238.181 235.976 240.733 238.242 244.011 238.242C246.321 238.242 248.103 237.252 249.115 235.778L246.871 234.106C246.387 234.854 245.397 235.492 244.033 235.492C242.581 235.492 241.283 234.678 241.107 233.204H249.335C249.379 232.742 249.379 232.434 249.379 232.17C249.379 228.606 246.849 226.758 243.967 226.758C240.623 226.758 238.181 229.244 238.181 232.5ZM243.879 229.244C245.001 229.244 246.101 229.86 246.365 231.158H241.217C241.503 229.816 242.757 229.244 243.879 229.244ZM257.768 237.89V235.228C257.416 235.36 257.02 235.426 256.536 235.426C255.238 235.426 254.666 234.898 254.666 233.556V229.64H257.768V227H254.666V223.942H251.652V227H249.43V229.64H251.652V234.15C251.652 236.834 253.522 238.132 255.854 238.132C256.69 238.132 257.284 238.044 257.768 237.89ZM203.255 243.282C203.255 242.226 202.397 241.368 201.319 241.368C200.285 241.368 199.405 242.226 199.405 243.282C199.405 244.338 200.285 245.196 201.319 245.196C202.397 245.196 203.255 244.338 203.255 243.282ZM199.823 258H202.837V247H199.823V258ZM204.851 258H207.865V252.632C207.865 250.52 208.921 249.508 210.307 249.508C211.561 249.508 212.243 250.476 212.243 252.06V258H215.257V251.554C215.257 248.694 213.673 246.758 211.011 246.758C209.581 246.758 208.437 247.374 207.865 248.254V247H204.851V258ZM224.25 257.89V255.228C223.898 255.36 223.502 255.426 223.018 255.426C221.72 255.426 221.148 254.898 221.148 253.556V249.64H224.25V247H221.148V243.942H218.134V247H215.912V249.64H218.134V254.15C218.134 256.834 220.004 258.132 222.336 258.132C223.172 258.132 223.766 258.044 224.25 257.89ZM228.953 243.282C228.953 242.226 228.095 241.368 227.017 241.368C225.983 241.368 225.103 242.226 225.103 243.282C225.103 244.338 225.983 245.196 227.017 245.196C228.095 245.196 228.953 244.338 228.953 243.282ZM225.521 258H228.535V247H225.521V258ZM230.549 258H233.563V252.632C233.563 250.52 234.465 249.508 235.763 249.508C236.951 249.508 237.479 250.498 237.479 252.126V258H240.493V252.632C240.493 250.52 241.395 249.508 242.693 249.508C243.881 249.508 244.409 250.498 244.409 252.126V258H247.423V251.62C247.423 248.65 245.927 246.758 243.309 246.758C242.055 246.758 240.581 247.418 239.899 248.782C239.239 247.506 238.095 246.758 236.489 246.758C235.147 246.758 234.157 247.396 233.563 248.254V247H230.549V258ZM248.602 252.5C248.602 255.624 250.846 258.242 253.772 258.242C255.29 258.242 256.456 257.472 256.94 256.768V258H259.954V247H256.94V248.232C256.456 247.528 255.29 246.758 253.772 246.758C250.846 246.758 248.602 249.376 248.602 252.5ZM257.182 252.5C257.182 254.216 256.06 255.492 254.41 255.492C252.76 255.492 251.638 254.216 251.638 252.5C251.638 250.784 252.76 249.508 254.41 249.508C256.06 249.508 257.182 250.784 257.182 252.5ZM269.242 257.89V255.228C268.89 255.36 268.494 255.426 268.01 255.426C266.712 255.426 266.14 254.898 266.14 253.556V249.64H269.242V247H266.14V243.942H263.126V247H260.904V249.64H263.126V254.15C263.126 256.834 264.996 258.132 267.328 258.132C268.164 258.132 268.758 258.044 269.242 257.89ZM269.658 252.5C269.658 255.976 272.21 258.242 275.488 258.242C277.798 258.242 279.58 257.252 280.592 255.778L278.348 254.106C277.864 254.854 276.874 255.492 275.51 255.492C274.058 255.492 272.76 254.678 272.584 253.204H280.812C280.856 252.742 280.856 252.434 280.856 252.17C280.856 248.606 278.326 246.758 275.444 246.758C272.1 246.758 269.658 249.244 269.658 252.5ZM275.356 249.244C276.478 249.244 277.578 249.86 277.842 251.158H272.694C272.98 249.816 274.234 249.244 275.356 249.244Z" fill="white"/>
</g>
<defs>
<clipPath id="clip0_752_54098">
<rect width="480" height="480" fill="white"/>
</clipPath>
</defs>
</svg>
