<svg width="482" height="480" viewBox="0 0 482 480" fill="none" xmlns="http://www.w3.org/2000/svg">
<rect width="480" height="480" transform="translate(1)" fill="#FF5500"/>
<path d="M1 120C22.7166 120 44.4332 160 61.0024 240C94.1409 400 147.869 400 181.007 240C214.146 80 267.874 80 301.012 240C334.151 400 387.879 400 421.017 240C437.581 160.024 459.29 120.024 481 120" stroke="#FF5500" stroke-width="2" stroke-linecap="round"/>
<path d="M1 120C22.7166 120 44.4332 160 61.0024 240C94.1409 400 147.869 400 181.007 240C214.146 80 267.874 80 301.012 240C334.151 400 387.879 400 421.017 240C437.581 160.024 459.29 120.024 481 120" stroke="black" stroke-opacity="0.2" stroke-width="2" stroke-linecap="round"/>
<path d="M205.774 245.976V238.65H199.306V241.642H202.672V244.348C201.924 244.942 200.67 245.184 199.394 245.184C196.16 245.184 194.158 243.028 194.158 240.19C194.158 237.462 196.16 235.196 199.152 235.196C200.978 235.196 202.298 235.9 203.222 236.868L205.444 234.668C203.97 233.084 201.858 232.116 199.152 232.116C194.356 232.116 190.946 235.724 190.946 240.19C190.946 244.766 194.554 248.264 199.416 248.264C201.902 248.264 204.366 247.516 205.774 245.976ZM206.758 242.5C206.758 245.976 209.31 248.242 212.588 248.242C214.898 248.242 216.68 247.252 217.692 245.778L215.448 244.106C214.964 244.854 213.974 245.492 212.61 245.492C211.158 245.492 209.86 244.678 209.684 243.204H217.912C217.956 242.742 217.956 242.434 217.956 242.17C217.956 238.606 215.426 236.758 212.544 236.758C209.2 236.758 206.758 239.244 206.758 242.5ZM212.456 239.244C213.578 239.244 214.678 239.86 214.942 241.158H209.794C210.08 239.816 211.334 239.244 212.456 239.244ZM226.345 247.89V245.228C225.993 245.36 225.597 245.426 225.113 245.426C223.815 245.426 223.243 244.898 223.243 243.556V239.64H226.345V237H223.243V233.942H220.229V237H218.007V239.64H220.229V244.15C220.229 246.834 222.099 248.132 224.431 248.132C225.267 248.132 225.861 248.044 226.345 247.89ZM230.973 242.5C230.973 245.624 233.217 248.242 236.143 248.242C237.661 248.242 238.827 247.472 239.311 246.768V248H242.325V237H239.311V238.232C238.827 237.528 237.661 236.758 236.143 236.758C233.217 236.758 230.973 239.376 230.973 242.5ZM239.553 242.5C239.553 244.216 238.431 245.492 236.781 245.492C235.131 245.492 234.009 244.216 234.009 242.5C234.009 240.784 235.131 239.508 236.781 239.508C238.431 239.508 239.553 240.784 239.553 242.5ZM254.715 245.074L252.097 243.666C251.657 244.678 250.711 245.426 249.501 245.426C247.917 245.426 246.707 244.194 246.707 242.5C246.707 240.806 247.917 239.574 249.501 239.574C250.711 239.574 251.657 240.322 252.097 241.334L254.715 239.926C253.769 238.034 251.789 236.758 249.501 236.758C246.245 236.758 243.671 239.178 243.671 242.5C243.671 245.822 246.245 248.242 249.501 248.242C251.789 248.242 253.769 246.966 254.715 245.074ZM263.001 247.89V245.228C262.649 245.36 262.253 245.426 261.769 245.426C260.471 245.426 259.899 244.898 259.899 243.556V239.64H263.001V237H259.899V233.942H256.885V237H254.663V239.64H256.885V244.15C256.885 246.834 258.755 248.132 261.087 248.132C261.923 248.132 262.517 248.044 263.001 247.89ZM267.704 233.282C267.704 232.226 266.846 231.368 265.768 231.368C264.734 231.368 263.854 232.226 263.854 233.282C263.854 234.338 264.734 235.196 265.768 235.196C266.846 235.196 267.704 234.338 267.704 233.282ZM264.272 248H267.286V237H264.272V248ZM272.732 248H275.482L280.366 237H277L274.096 244.04L271.192 237H267.87L272.732 248ZM279.919 242.5C279.919 245.976 282.471 248.242 285.749 248.242C288.059 248.242 289.841 247.252 290.853 245.778L288.609 244.106C288.125 244.854 287.135 245.492 285.771 245.492C284.319 245.492 283.021 244.678 282.845 243.204H291.073C291.117 242.742 291.117 242.434 291.117 242.17C291.117 238.606 288.587 236.758 285.705 236.758C282.361 236.758 279.919 239.244 279.919 242.5ZM285.617 239.244C286.739 239.244 287.839 239.86 288.103 241.158H282.955C283.241 239.816 284.495 239.244 285.617 239.244Z" fill="white"/>
</svg>
