<svg width="482" height="482" viewBox="0 0 482 482" fill="none" xmlns="http://www.w3.org/2000/svg">
<rect width="480" height="480" transform="translate(1 1)" fill="#FF9900"/>
<rect width="480" height="480" transform="translate(1 1)" fill="white" fill-opacity="0.8"/>
<path d="M241 1V481" stroke="#FF9900" stroke-width="2" stroke-linecap="round"/>
<path d="M481 241L0.99999 241" stroke="#FF9900" stroke-width="2" stroke-linecap="round"/>
<path d="M410.706 410.706L71.2943 71.2943" stroke="#FF9900" stroke-width="2" stroke-linecap="round"/>
<path d="M71.2944 410.706L410.706 71.2943" stroke="#FF9900" stroke-width="2" stroke-linecap="round"/>
<path d="M303.116 9.17786L178.883 472.822" stroke="#FF9900" stroke-width="2" stroke-linecap="round"/>
<path d="M472.822 303.117L9.17787 178.883" stroke="#FF9900" stroke-width="2" stroke-linecap="round"/>
<path d="M361 448.846L121 33.1539" stroke="#FF9900" stroke-width="2" stroke-linecap="round"/>
<path d="M33.1541 361L448.846 121" stroke="#FF9900" stroke-width="2" stroke-linecap="round"/>
<path d="M361 33.1539L121 448.846" stroke="#FF9900" stroke-width="2" stroke-linecap="round"/>
<path d="M448.846 361L33.154 121" stroke="#FF9900" stroke-width="2" stroke-linecap="round"/>
<path d="M303.117 472.822L178.884 9.17774" stroke="#FF9900" stroke-width="2" stroke-linecap="round"/>
<path d="M9.17798 303.117L472.822 178.883" stroke="#FF9900" stroke-width="2" stroke-linecap="round"/>
<circle cx="241" cy="241" r="60" fill="#FF9900"/>
<circle cx="241" cy="241" r="60" fill="white" fill-opacity="0.8"/>
<path d="M194.922 236.47C196.044 238.186 198.134 239.264 200.62 239.264C203.854 239.264 206.076 237.35 206.098 234.556C206.098 232.202 204.668 230.75 202.38 229.914L201.126 229.452C199.476 228.858 198.706 228.44 198.706 227.494C198.706 226.57 199.718 226.108 200.796 226.108C201.874 226.108 202.842 226.548 203.59 227.45L205.702 225.272C204.36 223.776 202.688 223.116 200.774 223.116C197.738 223.116 195.494 224.854 195.494 227.802C195.494 229.936 196.836 231.388 199.344 232.268L200.664 232.73C202.204 233.258 202.842 233.874 202.842 234.754C202.842 235.656 202.006 236.272 200.752 236.272C199.476 236.272 198.134 235.59 197.364 234.424L194.922 236.47ZM214.212 238.89V236.228C213.86 236.36 213.464 236.426 212.98 236.426C211.682 236.426 211.11 235.898 211.11 234.556V230.64H214.212V228H211.11V224.942H208.096V228H205.874V230.64H208.096V235.15C208.096 237.834 209.966 239.132 212.298 239.132C213.134 239.132 213.728 239.044 214.212 238.89ZM218.915 224.282C218.915 223.226 218.057 222.368 216.979 222.368C215.945 222.368 215.065 223.226 215.065 224.282C215.065 225.338 215.945 226.196 216.979 226.196C218.057 226.196 218.915 225.338 218.915 224.282ZM215.483 239H218.497V228H215.483V239ZM220.511 239H223.525V233.632C223.525 231.52 224.427 230.508 225.725 230.508C226.913 230.508 227.441 231.498 227.441 233.126V239H230.455V233.632C230.455 231.52 231.357 230.508 232.655 230.508C233.843 230.508 234.371 231.498 234.371 233.126V239H237.385V232.62C237.385 229.65 235.889 227.758 233.271 227.758C232.017 227.758 230.543 228.418 229.861 229.782C229.201 228.506 228.057 227.758 226.451 227.758C225.109 227.758 224.119 228.396 223.525 229.254V228H220.511V239ZM239.135 234.38C239.135 237.306 240.609 239.242 243.271 239.242C244.679 239.242 245.713 238.626 246.285 237.746V239H249.299V228H246.285V233.368C246.285 235.502 245.361 236.492 244.019 236.492C242.721 236.492 242.149 235.524 242.149 233.874V228H239.135V234.38ZM251.321 239H254.335V222.5H251.321V239ZM255.645 233.5C255.645 236.624 257.889 239.242 260.815 239.242C262.333 239.242 263.499 238.472 263.983 237.768V239H266.997V228H263.983V229.232C263.499 228.528 262.333 227.758 260.815 227.758C257.889 227.758 255.645 230.376 255.645 233.5ZM264.225 233.5C264.225 235.216 263.103 236.492 261.453 236.492C259.803 236.492 258.681 235.216 258.681 233.5C258.681 231.784 259.803 230.508 261.453 230.508C263.103 230.508 264.225 231.784 264.225 233.5ZM276.285 238.89V236.228C275.933 236.36 275.537 236.426 275.053 236.426C273.755 236.426 273.183 235.898 273.183 234.556V230.64H276.285V228H273.183V224.942H270.169V228H267.947V230.64H270.169V235.15C270.169 237.834 272.039 239.132 274.371 239.132C275.207 239.132 275.801 239.044 276.285 238.89ZM276.702 233.5C276.702 236.976 279.254 239.242 282.532 239.242C284.842 239.242 286.624 238.252 287.636 236.778L285.392 235.106C284.908 235.854 283.918 236.492 282.554 236.492C281.102 236.492 279.804 235.678 279.628 234.204H287.856C287.9 233.742 287.9 233.434 287.9 233.17C287.9 229.606 285.37 227.758 282.488 227.758C279.144 227.758 276.702 230.244 276.702 233.5ZM282.4 230.244C283.522 230.244 284.622 230.86 284.886 232.158H279.738C280.024 230.816 281.278 230.244 282.4 230.244ZM201.291 259H204.305V253.632C204.305 251.52 205.207 250.508 206.505 250.508C207.693 250.508 208.221 251.498 208.221 253.126V259H211.235V253.632C211.235 251.52 212.137 250.508 213.435 250.508C214.623 250.508 215.151 251.498 215.151 253.126V259H218.165V252.62C218.165 249.65 216.669 247.758 214.051 247.758C212.797 247.758 211.323 248.418 210.641 249.782C209.981 248.506 208.837 247.758 207.231 247.758C205.889 247.758 204.899 248.396 204.305 249.254V248H201.291V259ZM223.906 263.598L230.814 248H227.492L224.566 255.128L221.618 248H218.318L222.938 258.384L220.628 263.598H223.906ZM234.96 259H237.974V253.632C237.974 251.52 238.876 250.508 240.174 250.508C241.362 250.508 241.89 251.498 241.89 253.126V259H244.904V253.632C244.904 251.52 245.806 250.508 247.104 250.508C248.292 250.508 248.82 251.498 248.82 253.126V259H251.834V252.62C251.834 249.65 250.338 247.758 247.72 247.758C246.466 247.758 244.992 248.418 244.31 249.782C243.65 248.506 242.506 247.758 240.9 247.758C239.558 247.758 238.568 248.396 237.974 249.254V248H234.96V259ZM257.149 244.282C257.149 243.226 256.291 242.368 255.213 242.368C254.179 242.368 253.299 243.226 253.299 244.282C253.299 245.338 254.179 246.196 255.213 246.196C256.291 246.196 257.149 245.338 257.149 244.282ZM253.717 259H256.731V248H253.717V259ZM258.745 259H261.759V253.632C261.759 251.52 262.815 250.508 264.201 250.508C265.455 250.508 266.137 251.476 266.137 253.06V259H269.151V252.554C269.151 249.694 267.567 247.758 264.905 247.758C263.475 247.758 262.331 248.374 261.759 249.254V248H258.745V259ZM270.331 253.5C270.331 256.624 272.575 259.242 275.501 259.242C277.019 259.242 278.185 258.472 278.669 257.768V259H281.683V242.5H278.669V249.232C278.185 248.528 277.019 247.758 275.501 247.758C272.575 247.758 270.331 250.376 270.331 253.5ZM278.911 253.5C278.911 255.216 277.789 256.492 276.139 256.492C274.489 256.492 273.367 255.216 273.367 253.5C273.367 251.784 274.489 250.508 276.139 250.508C277.789 250.508 278.911 251.784 278.911 253.5Z" fill="#0E0E0E"/>
</svg>
