<svg width="480" height="480" viewBox="0 0 480 480" fill="none" xmlns="http://www.w3.org/2000/svg">
<g clip-path="url(#clip0_752_54092)">
<rect width="480" height="480" fill="#8E00E5"/>
<rect width="480" height="480" fill="black" fill-opacity="0.2"/>
<rect y="-7" width="480" height="14" fill="#8E00E6"/>
<rect y="9" width="480" height="14" fill="#8E00E6"/>
<rect y="25" width="480" height="16" fill="#8E00E6"/>
<rect y="43" width="480" height="16" fill="#8E00E6"/>
<rect y="61" width="480" height="16" fill="#8E00E6"/>
<rect y="79" width="480" height="16" fill="#8E00E6"/>
<rect y="97" width="480" height="16" fill="#8E00E6"/>
<rect y="115" width="480" height="16" fill="#8E00E6"/>
<rect y="133" width="480" height="16" fill="#8E00E6"/>
<rect y="151" width="480" height="16" fill="#8E00E6"/>
<rect y="169" width="480" height="16" fill="#8E00E6"/>
<rect y="187" width="480" height="16" fill="#8E00E6"/>
<rect y="205" width="480" height="16" fill="#8E00E6"/>
<rect y="223" width="480" height="16" fill="#8E00E6"/>
<rect y="241" width="480" height="16" fill="#8E00E6"/>
<rect y="259" width="480" height="16" fill="#8E00E6"/>
<rect y="277" width="480" height="16" fill="#8E00E6"/>
<rect y="295" width="480" height="16" fill="#8E00E6"/>
<rect y="313" width="480" height="16" fill="#8E00E6"/>
<rect y="331" width="480" height="16" fill="#8E00E6"/>
<rect y="349" width="480" height="16" fill="#8E00E6"/>
<rect y="367" width="480" height="16" fill="#8E00E6"/>
<rect y="385" width="480" height="16" fill="#8E00E6"/>
<rect y="403" width="480" height="16" fill="#8E00E6"/>
<rect y="421" width="480" height="16" fill="#8E00E6"/>
<rect y="439" width="480" height="16" fill="#8E00E6"/>
<rect y="457" width="480" height="16" fill="#8E00E6"/>
<rect y="475" width="480" height="16" fill="#8E00E6"/>
<rect width="103" height="32" transform="translate(188.5 224)" fill="#8E00E6"/>
<path d="M210.586 245.976V238.65H204.118V241.642H207.484V244.348C206.736 244.942 205.482 245.184 204.206 245.184C200.972 245.184 198.97 243.028 198.97 240.19C198.97 237.462 200.972 235.196 203.964 235.196C205.79 235.196 207.11 235.9 208.034 236.868L210.256 234.668C208.782 233.084 206.67 232.116 203.964 232.116C199.168 232.116 195.758 235.724 195.758 240.19C195.758 244.766 199.366 248.264 204.228 248.264C206.714 248.264 209.178 247.516 210.586 245.976ZM211.569 242.5C211.569 245.976 214.121 248.242 217.399 248.242C219.709 248.242 221.491 247.252 222.503 245.778L220.259 244.106C219.775 244.854 218.785 245.492 217.421 245.492C215.969 245.492 214.671 244.678 214.495 243.204H222.723C222.767 242.742 222.767 242.434 222.767 242.17C222.767 238.606 220.237 236.758 217.355 236.758C214.011 236.758 211.569 239.244 211.569 242.5ZM217.267 239.244C218.389 239.244 219.489 239.86 219.753 241.158H214.605C214.891 239.816 216.145 239.244 217.267 239.244ZM231.157 247.89V245.228C230.805 245.36 230.409 245.426 229.925 245.426C228.627 245.426 228.055 244.898 228.055 243.556V239.64H231.157V237H228.055V233.942H225.041V237H222.819V239.64H225.041V244.15C225.041 246.834 226.911 248.132 229.243 248.132C230.079 248.132 230.673 248.044 231.157 247.89ZM236.489 248H239.503V242.742C239.503 240.938 240.449 239.816 241.879 239.816C242.363 239.816 242.781 239.904 243.243 240.058V237C242.869 236.89 242.539 236.868 242.231 236.868C240.999 236.868 239.877 237.682 239.503 238.76V237H236.489V248ZM243.219 242.5C243.219 245.976 245.771 248.242 249.049 248.242C251.359 248.242 253.141 247.252 254.153 245.778L251.909 244.106C251.425 244.854 250.435 245.492 249.071 245.492C247.619 245.492 246.321 244.678 246.145 243.204H254.373C254.417 242.742 254.417 242.434 254.417 242.17C254.417 238.606 251.887 236.758 249.005 236.758C245.661 236.758 243.219 239.244 243.219 242.5ZM248.917 239.244C250.039 239.244 251.139 239.86 251.403 241.158H246.255C246.541 239.816 247.795 239.244 248.917 239.244ZM255.762 248H258.776V231.5H255.762V248ZM264.222 233.282C264.222 232.226 263.364 231.368 262.286 231.368C261.252 231.368 260.372 232.226 260.372 233.282C260.372 234.338 261.252 235.196 262.286 235.196C263.364 235.196 264.222 234.338 264.222 233.282ZM260.79 248H263.804V237H260.79V248ZM265.114 242.5C265.114 245.976 267.666 248.242 270.944 248.242C273.254 248.242 275.036 247.252 276.048 245.778L273.804 244.106C273.32 244.854 272.33 245.492 270.966 245.492C269.514 245.492 268.216 244.678 268.04 243.204H276.268C276.312 242.742 276.312 242.434 276.312 242.17C276.312 238.606 273.782 236.758 270.9 236.758C267.556 236.758 265.114 239.244 265.114 242.5ZM270.812 239.244C271.934 239.244 273.034 239.86 273.298 241.158H268.15C268.436 239.816 269.69 239.244 270.812 239.244ZM278.63 248H281.644V239.64H284.746V237H281.644V235.944C281.644 234.602 282.216 234.074 283.514 234.074C283.998 234.074 284.394 234.14 284.746 234.272V231.61C284.262 231.456 283.668 231.368 282.832 231.368C280.5 231.368 278.63 232.886 278.63 235.57V237H276.408V239.64H278.63V248Z" fill="white"/>
</g>
<defs>
<clipPath id="clip0_752_54092">
<rect width="480" height="480" fill="white"/>
</clipPath>
</defs>
</svg>
