<svg width="480" height="480" viewBox="0 0 480 480" fill="none" xmlns="http://www.w3.org/2000/svg">
<rect width="480" height="480" fill="#FF5500"/>
<rect width="480" height="480" fill="white" fill-opacity="0.8"/>
<path d="M240 209.609C235.842 204.33 227.798 197 215.15 197C198.898 197 186 211.123 186 225.087C186 239.056 193.243 249.993 207.734 262.577C222.174 275.123 227.134 276.387 239.936 283C252.871 276.387 257.835 275.123 272.271 262.577C286.761 249.993 294 239.056 294 225.087C294 211.123 281.106 197 264.85 197C252.207 197 244.158 204.33 240 209.609Z" fill="#FF5500"/>
<path d="M220.183 248H223.373V241.686H228.323V238.65H223.373V235.416H229.687V232.38H220.183V248ZM229.163 242.5C229.163 245.624 231.407 248.242 234.333 248.242C235.851 248.242 237.017 247.472 237.501 246.768V248H240.515V237H237.501V238.232C237.017 237.528 235.851 236.758 234.333 236.758C231.407 236.758 229.163 239.376 229.163 242.5ZM237.743 242.5C237.743 244.216 236.621 245.492 234.971 245.492C233.321 245.492 232.199 244.216 232.199 242.5C232.199 240.784 233.321 239.508 234.971 239.508C236.621 239.508 237.743 240.784 237.743 242.5ZM245.997 248H248.747L253.631 237H250.265L247.361 244.04L244.457 237H241.135L245.997 248ZM261.761 244.722C261.761 242.918 260.661 241.686 258.725 241.136L257.691 240.85C256.613 240.542 256.371 240.322 256.371 239.926C256.371 239.464 256.855 239.244 257.537 239.244C258.351 239.244 259.121 239.596 259.737 240.146L261.431 238.32C260.529 237.352 259.275 236.758 257.669 236.758C255.359 236.758 253.665 238.1 253.643 240.102C253.599 241.818 254.611 243.138 256.613 243.666L257.383 243.886C258.571 244.216 259.011 244.414 259.011 244.898C259.011 245.426 258.417 245.69 257.647 245.69C256.613 245.69 255.667 245.25 255.161 244.48L253.137 246.196C254.105 247.582 255.755 248.242 257.493 248.242C259.957 248.242 261.761 246.856 261.761 244.722Z" fill="white"/>
</svg>
