<svg width="480" height="480" viewBox="0 0 480 480" fill="none" xmlns="http://www.w3.org/2000/svg">
<rect width="480" height="480" fill="#FF5500"/>
<rect width="480" height="480" fill="white" fill-opacity="0.8"/>
<path fill-rule="evenodd" clip-rule="evenodd" d="M300 190C292.462 190 285.735 193.475 281.335 198.911C279.667 198.321 277.871 198 276 198C267.163 198 260 205.163 260 214L276 214L292 214L316 214L324 214H332C332 209.582 328.418 206 324 206C323.548 206 323.104 206.038 322.673 206.11C319.409 196.731 310.491 190 300 190Z" fill="#FF9900"/>
<path fill-rule="evenodd" clip-rule="evenodd" d="M300 190C292.462 190 285.735 193.475 281.335 198.911C279.667 198.321 277.871 198 276 198C267.163 198 260 205.163 260 214L276 214L292 214L316 214L324 214H332C332 209.582 328.418 206 324 206C323.548 206 323.104 206.038 322.673 206.11C319.409 196.731 310.491 190 300 190Z" fill="white" fill-opacity="0.8"/>
<path fill-rule="evenodd" clip-rule="evenodd" d="M163.333 252C153.282 252 144.314 256.634 138.447 263.882C136.222 263.095 133.828 262.667 131.333 262.667C119.551 262.667 110 272.218 110 284L131.333 284L152.667 284L184.667 284L195.333 284H206C206 278.109 201.224 273.333 195.333 273.333C194.73 273.333 194.139 273.383 193.564 273.479C189.212 260.974 177.321 252 163.333 252Z" fill="#FF9900"/>
<path fill-rule="evenodd" clip-rule="evenodd" d="M163.333 252C153.282 252 144.314 256.634 138.447 263.882C136.222 263.095 133.828 262.667 131.333 262.667C119.551 262.667 110 272.218 110 284L131.333 284L152.667 284L184.667 284L195.333 284H206C206 278.109 201.224 273.333 195.333 273.333C194.73 273.333 194.139 273.383 193.564 273.479C189.212 260.974 177.321 252 163.333 252Z" fill="white" fill-opacity="0.8"/>
<path fill-rule="evenodd" clip-rule="evenodd" d="M143.333 214C148.359 214 152.843 216.317 155.776 219.941C156.889 219.547 158.086 219.333 159.333 219.333C165.224 219.333 170 224.109 170 230L159.333 230L148.667 230L132.667 230L127.333 230H122C122 227.054 124.388 224.667 127.333 224.667C127.635 224.667 127.93 224.692 128.218 224.74C130.394 218.487 136.34 214 143.333 214Z" fill="#FF9900"/>
<path fill-rule="evenodd" clip-rule="evenodd" d="M143.333 214C148.359 214 152.843 216.317 155.776 219.941C156.889 219.547 158.086 219.333 159.333 219.333C165.224 219.333 170 224.109 170 230L159.333 230L148.667 230L132.667 230L127.333 230H122C122 227.054 124.388 224.667 127.333 224.667C127.635 224.667 127.93 224.692 128.218 224.74C130.394 218.487 136.34 214 143.333 214Z" fill="white" fill-opacity="0.8"/>
<path fill-rule="evenodd" clip-rule="evenodd" d="M272.671 269.822C281.471 258.951 294.924 252 310 252C336.51 252 358 273.49 358 300H294L262 300L230 300C230 282.327 244.327 268 262 268C265.742 268 269.333 268.642 272.671 269.822Z" fill="#FF9900"/>
<path fill-rule="evenodd" clip-rule="evenodd" d="M272.671 269.822C281.471 258.951 294.924 252 310 252C336.51 252 358 273.49 358 300H294L262 300L230 300C230 282.327 244.327 268 262 268C265.742 268 269.333 268.642 272.671 269.822Z" fill="white" fill-opacity="0.8"/>
<path d="M202 195C193.163 195 186 202.163 186 211L218 211C218 202.163 210.837 195 202 195Z" fill="#FF9900"/>
<path d="M202 195C193.163 195 186 202.163 186 211L218 211C218 202.163 210.837 195 202 195Z" fill="white" fill-opacity="0.8"/>
<path d="M390 268C381.163 268 374 275.163 374 284L406 284C406 275.163 398.837 268 390 268Z" fill="#FF9900"/>
<path d="M390 268C381.163 268 374 275.163 374 284L406 284C406 275.163 398.837 268 390 268Z" fill="white" fill-opacity="0.8"/>
<path d="M360 198C355.582 198 352 201.582 352 206L368 206C368 201.582 364.418 198 360 198Z" fill="#FF9900"/>
<path d="M360 198C355.582 198 352 201.582 352 206L368 206C368 201.582 364.418 198 360 198Z" fill="white" fill-opacity="0.8"/>
<path d="M428 235C423.582 235 420 238.582 420 243L436 243C436 238.582 432.418 235 428 235Z" fill="#FF9900"/>
<path d="M428 235C423.582 235 420 238.582 420 243L436 243C436 238.582 432.418 235 428 235Z" fill="white" fill-opacity="0.8"/>
<path d="M94 235C89.5817 235 86 238.582 86 243L102 243C102 238.582 98.4183 235 94 235Z" fill="#FF9900"/>
<path d="M94 235C89.5817 235 86 238.582 86 243L102 243C102 238.582 98.4183 235 94 235Z" fill="white" fill-opacity="0.8"/>
<path fill-rule="evenodd" clip-rule="evenodd" d="M208 200C208 191.163 215.163 184 224 184C230.026 184 235.273 187.331 238.002 192.252C238.641 192.087 239.31 192 240 192C244.418 192 248 195.582 248 200H240L232 200L208 200Z" fill="#FF9900"/>
<path fill-rule="evenodd" clip-rule="evenodd" d="M208 200C208 191.163 215.163 184 224 184C230.026 184 235.273 187.331 238.002 192.252C238.641 192.087 239.31 192 240 192C244.418 192 248 195.582 248 200H240L232 200L208 200Z" fill="white" fill-opacity="0.8"/>
<path fill-rule="evenodd" clip-rule="evenodd" d="M356 243C356 234.163 363.163 227 372 227C378.026 227 383.273 230.331 386.002 235.252C386.641 235.087 387.31 235 388 235C392.418 235 396 238.582 396 243H388L380 243L356 243Z" fill="#FF9900"/>
<path fill-rule="evenodd" clip-rule="evenodd" d="M356 243C356 234.163 363.163 227 372 227C378.026 227 383.273 230.331 386.002 235.252C386.641 235.087 387.31 235 388 235C392.418 235 396 238.582 396 243H388L380 243L356 243Z" fill="white" fill-opacity="0.8"/>
<path d="M202.44 238H212.164V234.964H205.63V231.664H210.844V228.628H205.63V225.416H212.164V222.38H202.44V238ZM212.709 232.5C212.709 235.624 214.953 238.242 217.879 238.242C219.397 238.242 220.563 237.472 221.047 236.768V238H224.061V227H221.047V228.232C220.563 227.528 219.397 226.758 217.879 226.758C214.953 226.758 212.709 229.376 212.709 232.5ZM221.289 232.5C221.289 234.216 220.167 235.492 218.517 235.492C216.867 235.492 215.745 234.216 215.745 232.5C215.745 230.784 216.867 229.508 218.517 229.508C220.167 229.508 221.289 230.784 221.289 232.5ZM233.877 234.722C233.877 232.918 232.777 231.686 230.841 231.136L229.807 230.85C228.729 230.542 228.487 230.322 228.487 229.926C228.487 229.464 228.971 229.244 229.653 229.244C230.467 229.244 231.237 229.596 231.853 230.146L233.547 228.32C232.645 227.352 231.391 226.758 229.785 226.758C227.475 226.758 225.781 228.1 225.759 230.102C225.715 231.818 226.727 233.138 228.729 233.666L229.499 233.886C230.687 234.216 231.127 234.414 231.127 234.898C231.127 235.426 230.533 235.69 229.763 235.69C228.729 235.69 227.783 235.25 227.277 234.48L225.253 236.196C226.221 237.582 227.871 238.242 229.609 238.242C232.073 238.242 233.877 236.856 233.877 234.722ZM234.539 232.5C234.539 235.976 237.091 238.242 240.369 238.242C242.679 238.242 244.461 237.252 245.473 235.778L243.229 234.106C242.745 234.854 241.755 235.492 240.391 235.492C238.939 235.492 237.641 234.678 237.465 233.204H245.693C245.737 232.742 245.737 232.434 245.737 232.17C245.737 228.606 243.207 226.758 240.325 226.758C236.981 226.758 234.539 229.244 234.539 232.5ZM240.237 229.244C241.359 229.244 242.459 229.86 242.723 231.158H237.575C237.861 229.816 239.115 229.244 240.237 229.244ZM251.143 238H254.157V232.632C254.157 230.52 255.059 229.508 256.357 229.508C257.545 229.508 258.073 230.498 258.073 232.126V238H261.087V232.632C261.087 230.52 261.989 229.508 263.287 229.508C264.475 229.508 265.003 230.498 265.003 232.126V238H268.017V231.62C268.017 228.65 266.521 226.758 263.903 226.758C262.649 226.758 261.175 227.418 260.493 228.782C259.833 227.506 258.689 226.758 257.083 226.758C255.741 226.758 254.751 227.396 254.157 228.254V227H251.143V238ZM273.757 242.598L280.665 227H277.343L274.417 234.128L271.469 227H268.169L272.789 237.384L270.479 242.598H273.757ZM216.626 258H219.64V252.632C219.64 250.52 220.542 249.508 221.84 249.508C223.028 249.508 223.556 250.498 223.556 252.126V258H226.57V252.632C226.57 250.52 227.472 249.508 228.77 249.508C229.958 249.508 230.486 250.498 230.486 252.126V258H233.5V251.62C233.5 248.65 232.004 246.758 229.386 246.758C228.132 246.758 226.658 247.418 225.976 248.782C225.316 247.506 224.172 246.758 222.566 246.758C221.224 246.758 220.234 247.396 219.64 248.254V247H216.626V258ZM238.814 243.282C238.814 242.226 237.956 241.368 236.878 241.368C235.844 241.368 234.964 242.226 234.964 243.282C234.964 244.338 235.844 245.196 236.878 245.196C237.956 245.196 238.814 244.338 238.814 243.282ZM235.382 258H238.396V247H235.382V258ZM240.41 258H243.424V252.632C243.424 250.52 244.48 249.508 245.866 249.508C247.12 249.508 247.802 250.476 247.802 252.06V258H250.816V251.554C250.816 248.694 249.232 246.758 246.57 246.758C245.14 246.758 243.996 247.374 243.424 248.254V247H240.41V258ZM251.996 252.5C251.996 255.624 254.24 258.242 257.166 258.242C258.684 258.242 259.85 257.472 260.334 256.768V258H263.348V241.5H260.334V248.232C259.85 247.528 258.684 246.758 257.166 246.758C254.24 246.758 251.996 249.376 251.996 252.5ZM260.576 252.5C260.576 254.216 259.454 255.492 257.804 255.492C256.154 255.492 255.032 254.216 255.032 252.5C255.032 250.784 256.154 249.508 257.804 249.508C259.454 249.508 260.576 250.784 260.576 252.5Z" fill="#5E1FF0"/>
</svg>
