<svg width="480" height="480" viewBox="0 0 480 480" fill="none" xmlns="http://www.w3.org/2000/svg">
<rect width="480" height="480" fill="#FFC220"/>
<rect width="480" height="480" fill="white" fill-opacity="0.8"/>
<circle cx="168" cy="240" r="32" fill="#FFC220"/>
<circle cx="240" cy="240" r="32" fill="#FFC220"/>
<circle cx="312" cy="240" r="32" fill="#FFC220"/>
<path d="M191.569 238H194.759V231.642H201.535V238H204.725V222.38H201.535V228.606H194.759V222.38H191.569V238ZM206.07 232.5C206.07 235.624 208.314 238.242 211.24 238.242C212.758 238.242 213.924 237.472 214.408 236.768V238H217.422V227H214.408V228.232C213.924 227.528 212.758 226.758 211.24 226.758C208.314 226.758 206.07 229.376 206.07 232.5ZM214.65 232.5C214.65 234.216 213.528 235.492 211.878 235.492C210.228 235.492 209.106 234.216 209.106 232.5C209.106 230.784 210.228 229.508 211.878 229.508C213.528 229.508 214.65 230.784 214.65 232.5ZM219.472 238H222.486V232.632C222.486 230.52 223.542 229.508 224.928 229.508C226.182 229.508 226.864 230.476 226.864 232.06V238H229.878V231.554C229.878 228.694 228.294 226.758 225.632 226.758C224.202 226.758 223.058 227.374 222.486 228.254V227H219.472V238ZM242.454 237.142V227H239.44V228.232C238.89 227.396 237.68 226.758 236.272 226.758C233.412 226.758 231.08 229.222 231.08 232.324C231.08 235.404 233.412 237.868 236.272 237.868C237.68 237.868 238.89 237.23 239.44 236.416V237.164C239.44 238.924 238.296 240.178 236.514 240.178C235.304 240.178 234.05 239.738 233.082 238.814L231.432 241.058C232.686 242.246 234.666 242.818 236.558 242.818C239.924 242.818 242.454 241.124 242.454 237.142ZM234.116 232.324C234.116 230.63 235.392 229.508 236.91 229.508C238.428 229.508 239.682 230.63 239.682 232.324C239.682 233.996 238.428 235.14 236.91 235.14C235.392 235.14 234.116 233.996 234.116 232.324ZM257.615 238H260.607L264.237 227H261.003L258.935 234.04L256.691 227H254.381L252.159 234.04L250.069 227H246.857L250.509 238H253.501L255.547 231.73L257.615 238ZM268.347 223.282C268.347 222.226 267.489 221.368 266.411 221.368C265.377 221.368 264.497 222.226 264.497 223.282C264.497 224.338 265.377 225.196 266.411 225.196C267.489 225.196 268.347 224.338 268.347 223.282ZM264.915 238H267.929V227H264.915V238ZM277.181 237.89V235.228C276.829 235.36 276.433 235.426 275.949 235.426C274.651 235.426 274.079 234.898 274.079 233.556V229.64H277.181V227H274.079V223.942H271.065V227H268.843V229.64H271.065V234.15C271.065 236.834 272.935 238.132 275.267 238.132C276.103 238.132 276.697 238.044 277.181 237.89ZM278.452 238H281.466V232.632C281.466 230.52 282.522 229.508 283.908 229.508C285.162 229.508 285.844 230.476 285.844 232.06V238H288.858V231.554C288.858 228.694 287.274 226.758 284.612 226.758C283.182 226.758 282.038 227.374 281.466 228.254V221.5H278.452V238ZM208.692 259H211.706V250.64H214.808V248H211.706V246.944C211.706 245.602 212.278 245.074 213.576 245.074C214.06 245.074 214.456 245.14 214.808 245.272V242.61C214.324 242.456 213.73 242.368 212.894 242.368C210.562 242.368 208.692 243.886 208.692 246.57V248H206.47V250.64H208.692V259ZM215.712 259H218.726V253.742C218.726 251.938 219.672 250.816 221.102 250.816C221.586 250.816 222.004 250.904 222.466 251.058V248C222.092 247.89 221.762 247.868 221.454 247.868C220.222 247.868 219.1 248.682 218.726 249.76V248H215.712V259ZM226.944 244.282C226.944 243.226 226.086 242.368 225.008 242.368C223.974 242.368 223.094 243.226 223.094 244.282C223.094 245.338 223.974 246.196 225.008 246.196C226.086 246.196 226.944 245.338 226.944 244.282ZM223.512 259H226.526V248H223.512V259ZM227.836 253.5C227.836 256.976 230.388 259.242 233.666 259.242C235.976 259.242 237.758 258.252 238.77 256.778L236.526 255.106C236.042 255.854 235.052 256.492 233.688 256.492C232.236 256.492 230.938 255.678 230.762 254.204H238.99C239.034 253.742 239.034 253.434 239.034 253.17C239.034 249.606 236.504 247.758 233.622 247.758C230.278 247.758 227.836 250.244 227.836 253.5ZM233.534 250.244C234.656 250.244 235.756 250.86 236.02 252.158H230.872C231.158 250.816 232.412 250.244 233.534 250.244ZM240.379 259H243.393V253.632C243.393 251.52 244.449 250.508 245.835 250.508C247.089 250.508 247.771 251.476 247.771 253.06V259H250.785V252.554C250.785 249.694 249.201 247.758 246.539 247.758C245.109 247.758 243.965 248.374 243.393 249.254V248H240.379V259ZM251.965 253.5C251.965 256.624 254.209 259.242 257.135 259.242C258.653 259.242 259.819 258.472 260.303 257.768V259H263.317V242.5H260.303V249.232C259.819 248.528 258.653 247.758 257.135 247.758C254.209 247.758 251.965 250.376 251.965 253.5ZM260.545 253.5C260.545 255.216 259.423 256.492 257.773 256.492C256.123 256.492 255.001 255.216 255.001 253.5C255.001 251.784 256.123 250.508 257.773 250.508C259.423 250.508 260.545 251.784 260.545 253.5ZM273.133 255.722C273.133 253.918 272.033 252.686 270.097 252.136L269.063 251.85C267.985 251.542 267.743 251.322 267.743 250.926C267.743 250.464 268.227 250.244 268.909 250.244C269.723 250.244 270.493 250.596 271.109 251.146L272.803 249.32C271.901 248.352 270.647 247.758 269.041 247.758C266.731 247.758 265.037 249.1 265.015 251.102C264.971 252.818 265.983 254.138 267.985 254.666L268.755 254.886C269.943 255.216 270.383 255.414 270.383 255.898C270.383 256.426 269.789 256.69 269.019 256.69C267.985 256.69 267.039 256.25 266.533 255.48L264.509 257.196C265.477 258.582 267.127 259.242 268.865 259.242C271.329 259.242 273.133 257.856 273.133 255.722Z" fill="#0E0E0E"/>
</svg>
