<svg width="1440" height="592" viewBox="0 0 1440 592" fill="none" xmlns="http://www.w3.org/2000/svg">
<path d="M281.466 90.5599C281.833 89.8166 282.893 89.8166 283.259 90.5599L285.069 94.2264C285.215 94.5215 285.496 94.7261 285.822 94.7734L289.868 95.3614C290.688 95.4805 291.016 96.4885 290.422 97.067L287.494 99.921C287.259 100.151 287.151 100.482 287.207 100.806L287.898 104.836C288.038 105.653 287.181 106.276 286.447 105.89L282.828 103.988C282.537 103.834 282.189 103.834 281.897 103.988L278.278 105.89C277.545 106.276 276.687 105.653 276.827 104.836L277.519 100.806C277.574 100.482 277.467 100.151 277.231 99.921L274.303 97.067C273.71 96.4885 274.037 95.4805 274.857 95.3614L278.904 94.7734C279.229 94.7261 279.511 94.5215 279.656 94.2264L281.466 90.5599Z" fill="#FFC220"/>
<path d="M399.466 296.56C399.833 295.817 400.893 295.817 401.259 296.56L403.069 300.226C403.215 300.522 403.496 300.726 403.822 300.773L407.868 301.361C408.688 301.481 409.016 302.489 408.422 303.067L405.494 305.921C405.259 306.151 405.151 306.482 405.207 306.806L405.898 310.836C406.038 311.653 405.181 312.276 404.447 311.89L400.828 309.988C400.537 309.834 400.189 309.834 399.897 309.988L396.278 311.89C395.545 312.276 394.687 311.653 394.827 310.836L395.519 306.806C395.574 306.482 395.467 306.151 395.231 305.921L392.303 303.067C391.71 302.489 392.037 301.481 392.857 301.361L396.904 300.773C397.229 300.726 397.511 300.522 397.656 300.226L399.466 296.56Z" fill="#FFC220"/>
<path d="M230.466 468.56C230.833 467.817 231.893 467.817 232.259 468.56L234.069 472.226C234.215 472.522 234.496 472.726 234.822 472.773L238.868 473.361C239.688 473.481 240.016 474.489 239.422 475.067L236.494 477.921C236.259 478.151 236.151 478.482 236.207 478.806L236.898 482.836C237.038 483.653 236.181 484.276 235.447 483.89L231.828 481.988C231.537 481.834 231.189 481.834 230.897 481.988L227.278 483.89C226.545 484.276 225.687 483.653 225.827 482.836L226.519 478.806C226.574 478.482 226.467 478.151 226.231 477.921L223.303 475.067C222.71 474.489 223.037 473.481 223.857 473.361L227.904 472.773C228.229 472.726 228.511 472.522 228.656 472.226L230.466 468.56Z" fill="#FFC220"/>
<path d="M126.94 275.124C127.674 273.638 129.793 273.638 130.527 275.124L134.145 282.455C134.436 283.045 134.999 283.454 135.65 283.549L143.741 284.725C145.381 284.963 146.036 286.979 144.849 288.135L138.995 293.842C138.524 294.301 138.309 294.963 138.42 295.612L139.802 303.67C140.082 305.303 138.367 306.549 136.901 305.778L129.664 301.973C129.081 301.667 128.386 301.667 127.803 301.973L120.567 305.778C119.1 306.549 117.385 305.303 117.665 303.67L119.047 295.612C119.159 294.963 118.944 294.301 118.472 293.842L112.618 288.135C111.431 286.979 112.086 284.963 113.726 284.725L121.817 283.549C122.468 283.454 123.031 283.045 123.322 282.455L126.94 275.124Z" fill="#FFC220"/>
<path d="M914.933 1.12281C915.666 -0.363365 917.785 -0.363365 918.519 1.12281L922.137 8.45422C922.428 9.04438 922.991 9.45343 923.643 9.54807L931.733 10.7237C933.373 10.962 934.028 12.9775 932.842 14.1344L926.987 19.8411C926.516 20.3004 926.301 20.9623 926.412 21.611L927.794 29.669C928.074 31.3024 926.36 32.5481 924.893 31.7769L917.656 27.9724C917.074 27.6661 916.378 27.6661 915.795 27.9724L908.559 31.7769C907.092 32.5481 905.377 31.3024 905.657 29.669L907.039 21.611C907.151 20.9623 906.936 20.3004 906.464 19.8411L900.61 14.1344C899.423 12.9775 900.078 10.962 901.718 10.7237L909.809 9.54807C910.46 9.45343 911.023 9.04438 911.314 8.45422L914.933 1.12281Z" fill="#FFC220"/>
<path d="M661.933 255.123C662.666 253.637 664.785 253.637 665.519 255.123L669.137 262.454C669.428 263.045 669.991 263.454 670.643 263.548L678.733 264.724C680.373 264.962 681.028 266.978 679.842 268.134L673.987 273.841C673.516 274.301 673.301 274.962 673.412 275.611L674.794 283.669C675.074 285.303 673.36 286.548 671.893 285.777L664.656 281.973C664.074 281.666 663.378 281.666 662.795 281.973L655.559 285.777C654.092 286.548 652.377 285.303 652.657 283.669L654.039 275.611C654.151 274.962 653.936 274.301 653.464 273.841L647.61 268.134C646.423 266.978 647.078 264.962 648.718 264.724L656.809 263.548C657.46 263.454 658.023 263.045 658.314 262.454L661.933 255.123Z" fill="#FFC220"/>
<path d="M833.933 560.123C834.666 558.637 836.785 558.637 837.519 560.123L841.137 567.454C841.428 568.045 841.991 568.454 842.643 568.548L850.733 569.724C852.373 569.962 853.028 571.978 851.842 573.134L845.987 578.841C845.516 579.301 845.301 579.962 845.412 580.611L846.794 588.669C847.074 590.303 845.36 591.548 843.893 590.777L836.656 586.973C836.074 586.666 835.378 586.666 834.795 586.973L827.559 590.777C826.092 591.548 824.377 590.303 824.657 588.669L826.039 580.611C826.151 579.962 825.936 579.301 825.464 578.841L819.61 573.134C818.423 571.978 819.078 569.962 820.718 569.724L828.809 568.548C829.46 568.454 830.023 568.045 830.314 567.454L833.933 560.123Z" fill="#FFC220"/>
<path d="M1111.47 390.56C1111.83 389.817 1112.89 389.817 1113.26 390.56L1115.07 394.226C1115.21 394.522 1115.5 394.726 1115.82 394.773L1119.87 395.361C1120.69 395.481 1121.02 396.489 1120.42 397.067L1117.49 399.921C1117.26 400.151 1117.15 400.482 1117.21 400.806L1117.9 404.836C1118.04 405.653 1117.18 406.276 1116.45 405.89L1112.83 403.988C1112.54 403.834 1112.19 403.834 1111.9 403.988L1108.28 405.89C1107.54 406.276 1106.69 405.653 1106.83 404.836L1107.52 400.806C1107.57 400.482 1107.47 400.151 1107.23 399.921L1104.3 397.067C1103.71 396.489 1104.04 395.481 1104.86 395.361L1108.9 394.773C1109.23 394.726 1109.51 394.522 1109.66 394.226L1111.47 390.56Z" fill="#FFC220"/>
<path d="M1068.47 572.56C1068.83 571.817 1069.89 571.817 1070.26 572.56L1072.07 576.226C1072.21 576.522 1072.5 576.726 1072.82 576.773L1076.87 577.361C1077.69 577.481 1078.02 578.489 1077.42 579.067L1074.49 581.921C1074.26 582.151 1074.15 582.482 1074.21 582.806L1074.9 586.836C1075.04 587.653 1074.18 588.276 1073.45 587.89L1069.83 585.988C1069.54 585.834 1069.19 585.834 1068.9 585.988L1065.28 587.89C1064.54 588.276 1063.69 587.653 1063.83 586.836L1064.52 582.806C1064.57 582.482 1064.47 582.151 1064.23 581.921L1061.3 579.067C1060.71 578.489 1061.04 577.481 1061.86 577.361L1065.9 576.773C1066.23 576.726 1066.51 576.522 1066.66 576.226L1068.47 572.56Z" fill="#FFC220"/>
<path d="M635.466 355.56C635.833 354.817 636.893 354.817 637.259 355.56L639.069 359.226C639.215 359.522 639.496 359.726 639.822 359.773L643.868 360.361C644.688 360.481 645.016 361.489 644.422 362.067L641.494 364.921C641.259 365.151 641.151 365.482 641.207 365.806L641.898 369.836C642.038 370.653 641.181 371.276 640.447 370.89L636.828 368.988C636.537 368.834 636.189 368.834 635.897 368.988L632.278 370.89C631.545 371.276 630.687 370.653 630.827 369.836L631.519 365.806C631.574 365.482 631.467 365.151 631.231 364.921L628.303 362.067C627.71 361.489 628.037 360.481 628.857 360.361L632.904 359.773C633.229 359.726 633.511 359.522 633.656 359.226L635.466 355.56Z" fill="#FFC220"/>
<path d="M1011.47 58.5599C1011.83 57.8166 1012.89 57.8166 1013.26 58.5599L1015.07 62.2264C1015.21 62.5215 1015.5 62.7261 1015.82 62.7734L1019.87 63.3614C1020.69 63.4805 1021.02 64.4885 1020.42 65.067L1017.49 67.921C1017.26 68.1507 1017.15 68.4817 1017.21 68.8061L1017.9 72.836C1018.04 73.6529 1017.18 74.2759 1016.45 73.8902L1012.83 71.9875C1012.54 71.8344 1012.19 71.8344 1011.9 71.9875L1008.28 73.8902C1007.54 74.2759 1006.69 73.6529 1006.83 72.836L1007.52 68.8061C1007.57 68.4817 1007.47 68.1507 1007.23 67.921L1004.3 65.067C1003.71 64.4885 1004.04 63.4805 1004.86 63.3614L1008.9 62.7734C1009.23 62.7261 1009.51 62.5215 1009.66 62.2264L1011.47 58.5599Z" fill="#FFC220"/>
<path d="M1169.47 8.55988C1169.83 7.81663 1170.89 7.81663 1171.26 8.55988L1173.07 12.2264C1173.21 12.5215 1173.5 12.7261 1173.82 12.7734L1177.87 13.3614C1178.69 13.4805 1179.02 14.4885 1178.42 15.067L1175.49 17.921C1175.26 18.1507 1175.15 18.4817 1175.21 18.8061L1175.9 22.836C1176.04 23.6529 1175.18 24.2759 1174.45 23.8902L1170.83 21.9875C1170.54 21.8344 1170.19 21.8344 1169.9 21.9875L1166.28 23.8902C1165.54 24.2759 1164.69 23.6529 1164.83 22.836L1165.52 18.8061C1165.57 18.4817 1165.47 18.1507 1165.23 17.921L1162.3 15.067C1161.71 14.4885 1162.04 13.4805 1162.86 13.3614L1166.9 12.7734C1167.23 12.7261 1167.51 12.5215 1167.66 12.2264L1169.47 8.55988Z" fill="#FFC220"/>
<path d="M246.466 134.56C246.833 133.817 247.893 133.817 248.259 134.56L250.069 138.226C250.215 138.522 250.496 138.726 250.822 138.773L254.868 139.361C255.688 139.481 256.016 140.489 255.422 141.067L252.494 143.921C252.259 144.151 252.151 144.482 252.207 144.806L252.898 148.836C253.038 149.653 252.181 150.276 251.447 149.89L247.828 147.988C247.537 147.834 247.189 147.834 246.897 147.988L243.278 149.89C242.545 150.276 241.687 149.653 241.827 148.836L242.519 144.806C242.574 144.482 242.467 144.151 242.231 143.921L239.303 141.067C238.71 140.489 239.037 139.481 239.857 139.361L243.904 138.773C244.229 138.726 244.511 138.522 244.656 138.226L246.466 134.56Z" fill="#FFC220"/>
<path d="M333.466 306.56C333.833 305.817 334.893 305.817 335.259 306.56L337.069 310.226C337.215 310.522 337.496 310.726 337.822 310.773L341.868 311.361C342.688 311.481 343.016 312.489 342.422 313.067L339.494 315.921C339.259 316.151 339.151 316.482 339.207 316.806L339.898 320.836C340.038 321.653 339.181 322.276 338.447 321.89L334.828 319.988C334.537 319.834 334.189 319.834 333.897 319.988L330.278 321.89C329.545 322.276 328.687 321.653 328.827 320.836L329.519 316.806C329.574 316.482 329.467 316.151 329.231 315.921L326.303 313.067C325.71 312.489 326.037 311.481 326.857 311.361L330.904 310.773C331.229 310.726 331.511 310.522 331.656 310.226L333.466 306.56Z" fill="#FFC220"/>
<path d="M1120.53 90.5599C1120.17 89.8166 1119.11 89.8166 1118.74 90.5599L1116.93 94.2264C1116.79 94.5215 1116.5 94.7261 1116.18 94.7734L1112.13 95.3614C1111.31 95.4805 1110.98 96.4885 1111.58 97.067L1114.51 99.921C1114.74 100.151 1114.85 100.482 1114.79 100.806L1114.1 104.836C1113.96 105.653 1114.82 106.276 1115.55 105.89L1119.17 103.988C1119.46 103.834 1119.81 103.834 1120.1 103.988L1123.72 105.89C1124.46 106.276 1125.31 105.653 1125.17 104.836L1124.48 100.806C1124.43 100.482 1124.53 100.151 1124.77 99.921L1127.7 97.067C1128.29 96.4885 1127.96 95.4805 1127.14 95.3614L1123.1 94.7734C1122.77 94.7261 1122.49 94.5215 1122.34 94.2264L1120.53 90.5599Z" fill="#FFC220"/>
<path d="M1002.53 296.56C1002.17 295.817 1001.11 295.817 1000.74 296.56L998.931 300.226C998.785 300.522 998.504 300.726 998.178 300.773L994.132 301.361C993.312 301.481 992.984 302.489 993.578 303.067L996.506 305.921C996.741 306.151 996.849 306.482 996.793 306.806L996.102 310.836C995.962 311.653 996.819 312.276 997.553 311.89L1001.17 309.988C1001.46 309.834 1001.81 309.834 1002.1 309.988L1005.72 311.89C1006.46 312.276 1007.31 311.653 1007.17 310.836L1006.48 306.806C1006.43 306.482 1006.53 306.151 1006.77 305.921L1009.7 303.067C1010.29 302.489 1009.96 301.481 1009.14 301.361L1005.1 300.773C1004.77 300.726 1004.49 300.522 1004.34 300.226L1002.53 296.56Z" fill="#FFC220"/>
<path d="M1171.53 468.56C1171.17 467.817 1170.11 467.817 1169.74 468.56L1167.93 472.226C1167.79 472.522 1167.5 472.726 1167.18 472.773L1163.13 473.361C1162.31 473.481 1161.98 474.489 1162.58 475.067L1165.51 477.921C1165.74 478.151 1165.85 478.482 1165.79 478.806L1165.1 482.836C1164.96 483.653 1165.82 484.276 1166.55 483.89L1170.17 481.988C1170.46 481.834 1170.81 481.834 1171.1 481.988L1174.72 483.89C1175.46 484.276 1176.31 483.653 1176.17 482.836L1175.48 478.806C1175.43 478.482 1175.53 478.151 1175.77 477.921L1178.7 475.067C1179.29 474.489 1178.96 473.481 1178.14 473.361L1174.1 472.773C1173.77 472.726 1173.49 472.522 1173.34 472.226L1171.53 468.56Z" fill="#FFC220"/>
<path d="M1275.06 275.124C1274.33 273.638 1272.21 273.638 1271.47 275.124L1267.86 282.455C1267.56 283.045 1267 283.455 1266.35 283.549L1258.26 284.725C1256.62 284.963 1255.96 286.979 1257.15 288.135L1263.01 293.842C1263.48 294.302 1263.69 294.963 1263.58 295.612L1262.2 303.67C1261.92 305.304 1263.63 306.549 1265.1 305.778L1272.34 301.973C1272.92 301.667 1273.61 301.667 1274.2 301.973L1281.43 305.778C1282.9 306.549 1284.61 305.304 1284.33 303.67L1282.95 295.612C1282.84 294.963 1283.06 294.302 1283.53 293.842L1289.38 288.135C1290.57 286.979 1289.91 284.963 1288.27 284.725L1280.18 283.549C1279.53 283.455 1278.97 283.045 1278.68 282.455L1275.06 275.124Z" fill="#FFC220"/>
<path d="M487.067 1.12293C486.334 -0.363243 484.215 -0.363243 483.481 1.12293L479.863 8.45434C479.572 9.0445 479.009 9.45355 478.357 9.54819L470.267 10.7238C468.627 10.9622 467.972 12.9777 469.158 14.1345L475.013 19.8412C475.484 20.3006 475.699 20.9624 475.588 21.6111L474.206 29.6691C473.926 31.3025 475.64 32.5482 477.107 31.777L484.344 27.9725C484.926 27.6663 485.622 27.6663 486.205 27.9725L493.441 31.777C494.908 32.5482 496.623 31.3025 496.343 29.6691L494.961 21.6111C494.849 20.9624 495.064 20.3006 495.536 19.8412L501.39 14.1345C502.577 12.9777 501.922 10.9622 500.282 10.7238L492.191 9.54819C491.54 9.45355 490.977 9.0445 490.686 8.45434L487.067 1.12293Z" fill="#FFC220"/>
<path d="M740.067 255.123C739.334 253.637 737.215 253.637 736.481 255.123L732.863 262.454C732.572 263.045 732.009 263.454 731.357 263.548L723.267 264.724C721.627 264.962 720.972 266.978 722.158 268.134L728.013 273.841C728.484 274.301 728.699 274.962 728.588 275.611L727.206 283.669C726.926 285.303 728.64 286.548 730.107 285.777L737.344 281.973C737.926 281.666 738.622 281.666 739.205 281.973L746.441 285.777C747.908 286.548 749.623 285.303 749.343 283.669L747.961 275.611C747.849 274.962 748.064 274.301 748.536 273.841L754.39 268.134C755.577 266.978 754.922 264.962 753.282 264.724L745.191 263.548C744.54 263.454 743.977 263.045 743.686 262.454L740.067 255.123Z" fill="#FFC220"/>
<path d="M568.067 560.123C567.334 558.637 565.215 558.637 564.481 560.123L560.863 567.454C560.572 568.045 560.009 568.454 559.357 568.548L551.267 569.724C549.627 569.962 548.972 571.978 550.158 573.134L556.013 578.841C556.484 579.301 556.699 579.962 556.588 580.611L555.206 588.669C554.926 590.303 556.64 591.548 558.107 590.777L565.344 586.973C565.926 586.666 566.622 586.666 567.205 586.973L574.441 590.777C575.908 591.548 577.623 590.303 577.343 588.669L575.961 580.611C575.849 579.962 576.064 579.301 576.536 578.841L582.39 573.134C583.577 571.978 582.922 569.962 581.282 569.724L573.191 568.548C572.54 568.454 571.977 568.045 571.686 567.454L568.067 560.123Z" fill="#FFC220"/>
<path d="M290.534 390.56C290.167 389.817 289.107 389.817 288.741 390.56L286.931 394.226C286.785 394.522 286.504 394.726 286.178 394.773L282.132 395.361C281.312 395.481 280.984 396.489 281.578 397.067L284.506 399.921C284.741 400.151 284.849 400.482 284.793 400.806L284.102 404.836C283.962 405.653 284.819 406.276 285.553 405.89L289.172 403.988C289.463 403.834 289.811 403.834 290.103 403.988L293.722 405.89C294.455 406.276 295.313 405.653 295.173 404.836L294.481 400.806C294.426 400.482 294.533 400.151 294.769 399.921L297.697 397.067C298.29 396.489 297.963 395.481 297.143 395.361L293.096 394.773C292.771 394.726 292.489 394.522 292.344 394.226L290.534 390.56Z" fill="#FFC220"/>
<path d="M333.534 572.56C333.167 571.817 332.107 571.817 331.741 572.56L329.931 576.226C329.785 576.522 329.504 576.726 329.178 576.773L325.132 577.361C324.312 577.481 323.984 578.489 324.578 579.067L327.506 581.921C327.741 582.151 327.849 582.482 327.793 582.806L327.102 586.836C326.962 587.653 327.819 588.276 328.553 587.89L332.172 585.988C332.463 585.834 332.811 585.834 333.103 585.988L336.722 587.89C337.455 588.276 338.313 587.653 338.173 586.836L337.481 582.806C337.426 582.482 337.533 582.151 337.769 581.921L340.697 579.067C341.29 578.489 340.963 577.481 340.143 577.361L336.096 576.773C335.771 576.726 335.489 576.522 335.344 576.226L333.534 572.56Z" fill="#FFC220"/>
<path d="M766.534 355.56C766.167 354.817 765.107 354.817 764.741 355.56L762.931 359.226C762.785 359.522 762.504 359.726 762.178 359.773L758.132 360.361C757.312 360.481 756.984 361.489 757.578 362.067L760.506 364.921C760.741 365.151 760.849 365.482 760.793 365.806L760.102 369.836C759.962 370.653 760.819 371.276 761.553 370.89L765.172 368.988C765.463 368.834 765.811 368.834 766.103 368.988L769.722 370.89C770.455 371.276 771.313 370.653 771.173 369.836L770.481 365.806C770.426 365.482 770.533 365.151 770.769 364.921L773.697 362.067C774.29 361.489 773.963 360.481 773.143 360.361L769.096 359.773C768.771 359.726 768.489 359.522 768.344 359.226L766.534 355.56Z" fill="#FFC220"/>
<path d="M390.534 58.5599C390.167 57.8166 389.107 57.8166 388.741 58.5599L386.931 62.2264C386.785 62.5215 386.504 62.7261 386.178 62.7734L382.132 63.3614C381.312 63.4805 380.984 64.4885 381.578 65.067L384.506 67.921C384.741 68.1507 384.849 68.4817 384.793 68.8061L384.102 72.836C383.962 73.6529 384.819 74.2759 385.553 73.8902L389.172 71.9875C389.463 71.8344 389.811 71.8344 390.103 71.9875L393.722 73.8902C394.455 74.2759 395.313 73.6529 395.173 72.836L394.481 68.8061C394.426 68.4817 394.533 68.1507 394.769 67.921L397.697 65.067C398.29 64.4885 397.963 63.4805 397.143 63.3614L393.096 62.7734C392.771 62.7261 392.489 62.5215 392.344 62.2264L390.534 58.5599Z" fill="#FFC220"/>
<path d="M232.534 8.55988C232.167 7.81663 231.107 7.81663 230.741 8.55988L228.931 12.2264C228.785 12.5215 228.504 12.7261 228.178 12.7734L224.132 13.3614C223.312 13.4805 222.984 14.4885 223.578 15.067L226.506 17.921C226.741 18.1507 226.849 18.4817 226.793 18.8061L226.102 22.836C225.962 23.6529 226.819 24.2759 227.553 23.8902L231.172 21.9875C231.463 21.8344 231.811 21.8344 232.103 21.9875L235.722 23.8902C236.455 24.2759 237.313 23.6529 237.173 22.836L236.481 18.8061C236.426 18.4817 236.533 18.1507 236.769 17.921L239.697 15.067C240.29 14.4885 239.963 13.4805 239.143 13.3614L235.096 12.7734C234.771 12.7261 234.489 12.5215 234.344 12.2264L232.534 8.55988Z" fill="#FFC220"/>
<path d="M1155.53 134.56C1155.17 133.817 1154.11 133.817 1153.74 134.56L1151.93 138.226C1151.79 138.522 1151.5 138.726 1151.18 138.773L1147.13 139.361C1146.31 139.481 1145.98 140.489 1146.58 141.067L1149.51 143.921C1149.74 144.151 1149.85 144.482 1149.79 144.806L1149.1 148.836C1148.96 149.653 1149.82 150.276 1150.55 149.89L1154.17 147.988C1154.46 147.834 1154.81 147.834 1155.1 147.988L1158.72 149.89C1159.46 150.276 1160.31 149.653 1160.17 148.836L1159.48 144.806C1159.43 144.482 1159.53 144.151 1159.77 143.921L1162.7 141.067C1163.29 140.489 1162.96 139.481 1162.14 139.361L1158.1 138.773C1157.77 138.726 1157.49 138.522 1157.34 138.226L1155.53 134.56Z" fill="#FFC220"/>
<path d="M1068.53 306.56C1068.17 305.817 1067.11 305.817 1066.74 306.56L1064.93 310.226C1064.79 310.522 1064.5 310.726 1064.18 310.773L1060.13 311.361C1059.31 311.481 1058.98 312.489 1059.58 313.067L1062.51 315.921C1062.74 316.151 1062.85 316.482 1062.79 316.806L1062.1 320.836C1061.96 321.653 1062.82 322.276 1063.55 321.89L1067.17 319.988C1067.46 319.834 1067.81 319.834 1068.1 319.988L1071.72 321.89C1072.46 322.276 1073.31 321.653 1073.17 320.836L1072.48 316.806C1072.43 316.482 1072.53 316.151 1072.77 315.921L1075.7 313.067C1076.29 312.489 1075.96 311.481 1075.14 311.361L1071.1 310.773C1070.77 310.726 1070.49 310.522 1070.34 310.226L1068.53 306.56Z" fill="#FFC220"/>
</svg>
