<svg width="96" height="96" fill="none" xmlns="http://www.w3.org/2000/svg"><g clip-path="url(#a)"><rect width="96" height="96" rx="19.2" fill="#8E00E6"/><path d="M-15.5 31.5C-23 10.5-40.8-21-80-33.2c-50.4-15.6-104.7 17.8-118.7 63.1s-2.4 87.8 30 142.5c32.3 54.6 46.4 63.4 79.6 97.2 46.8-9 63.5-8.4 121-35.3s91-55.4 105-100.7c14-45.3-12-103.5-62.4-119.1C35 2.3 2.7 18.4-15.5 31.5Z" fill="#CE349A"/><path d="M171.2 75.2c-13.5-18-39.7-42.8-80.8-42.8-52.9 0-94.8 48-94.8 95.4 0 47.4 23.6 84.5 70.7 127.3 47 42.6 63 46.8 104.7 69.3 42-22.5 58.2-26.7 105.1-69.3 47.2-42.8 70.7-80 70.7-127.3 0-47.4-42-95.4-94.8-95.4-41.1 0-67.3 24.9-80.8 42.8Z" fill="#F50"/><path d="M-119.6 79.9c-13.5-18-39.7-42.8-80.8-42.8-52.9 0-94.8 48-94.8 95.3 0 47.5 23.6 84.6 70.7 127.3 47 42.6 63 47 104.7 69.4 42-22.5 58.2-26.8 105.1-69.4C32.5 217 56 180 56 132.4 56 85 14 37.1-38.8 37.1-79.9 37-106 62-119.6 79.9Z" fill="#F90"/><path d="M48 34.4a13.8 13.8 0 0 0-11-5.9c-7.3 0-13 6.6-13 13 0 6.5 3.2 11.6 9.7 17.5 6.4 5.8 8.6 6.4 14.3 9.4 5.7-3 8-3.6 14.3-9.4C68.8 53 72 48 72 41.5c0-6.4-5.7-13-13-13-5.6 0-9.2 3.4-11 5.9Z" fill="#FFC220"/></g><defs><clipPath id="a"><rect width="96" height="96" rx="19.2" fill="#fff"/></clipPath></defs></svg>