<svg width="64" height="64" viewBox="0 0 64 64" fill="none" xmlns="http://www.w3.org/2000/svg">
<rect width="64" height="64" rx="32" fill="#F7F7F7"/>
<path d="M20 17.3333C20 16.597 20.597 16 21.3333 16C22.7259 16 24.0572 16.6456 25.0269 17.816C25.53 18.4234 26.1291 18.6667 26.6669 18.6667C27.2046 18.6667 27.8038 18.4234 28.3069 17.816C29.2766 16.6456 30.6078 16 32.0004 16C33.393 16 34.7243 16.6456 35.694 17.816C36.1971 18.4234 36.7962 18.6667 37.334 18.6667C37.8717 18.6667 38.4709 18.4234 38.974 17.816C39.9434 16.6459 41.2741 16.0004 42.6663 16C43.4027 15.9998 43.9998 16.5966 44 17.333C44.0002 18.0693 43.4034 18.6665 42.667 18.6667C42.1294 18.6668 41.5305 18.9101 41.0275 19.5173C40.0578 20.6877 38.7266 21.3333 37.334 21.3333C35.9414 21.3333 34.6101 20.6877 33.6405 19.5173C33.1373 18.91 32.5382 18.6667 32.0004 18.6667C31.4627 18.6667 30.8636 18.91 30.3604 19.5173C29.3907 20.6877 28.0595 21.3333 26.6669 21.3333C25.2743 21.3333 23.943 20.6877 22.9734 19.5173C22.4702 18.91 21.8711 18.6667 21.3333 18.6667C20.597 18.6667 20 18.0697 20 17.3333Z" fill="#8E00E6"/>
<path d="M32 24C23.1634 24 16 31.1634 16 40V48H48V40C48 31.1634 40.8366 24 32 24Z" fill="#8E00E6"/>
<path d="M23.1498 32.3066C23.7168 31.8368 24.5574 31.9157 25.0271 32.4828C25.5303 33.0901 26.1293 33.3334 26.667 33.3334C27.2047 33.3334 27.8038 33.0901 28.3069 32.4828C28.7767 31.9157 29.6172 31.8368 30.1843 32.3066C30.7514 32.7764 30.8302 33.6169 30.3605 34.184C29.3908 35.3544 28.0596 36 26.667 36C25.2744 36 23.9432 35.3544 22.9736 34.184C22.5038 33.6169 22.5827 32.7764 23.1498 32.3066Z" fill="#0E0E0E"/>
<path d="M25.5255 40.6444C25.906 40.0139 26.7256 39.8113 27.356 40.1918C28.5739 40.9269 30.2515 41.3334 32.0004 41.3334C33.7492 41.3334 35.4268 40.9269 36.6447 40.1918C37.2752 39.8113 38.0947 40.0139 38.4752 40.6444C38.8557 41.2748 38.6531 42.0944 38.0227 42.4749C36.2951 43.5176 34.1121 44 32.0004 44C29.8886 44 27.7056 43.5176 25.9781 42.4749C25.3476 42.0944 25.145 41.2748 25.5255 40.6444Z" fill="#0E0E0E"/>
<path d="M35.6938 32.4828C35.224 31.9157 34.3835 31.8368 33.8164 32.3066C33.2494 32.7764 33.1705 33.6169 33.6403 34.184C34.6099 35.3544 35.9411 36 37.3337 36C38.7263 36 40.0575 35.3544 41.0271 34.184C41.4969 33.6169 41.418 32.7764 40.851 32.3066C40.2839 31.8368 39.4434 31.9157 38.9736 32.4828C38.4705 33.0901 37.8714 33.3334 37.3337 33.3334C36.796 33.3334 36.1969 33.0901 35.6938 32.4828Z" fill="#0E0E0E"/>
</svg>
