<svg width="56" height="56" viewBox="0 0 56 56" fill="none" xmlns="http://www.w3.org/2000/svg">
<rect width="56" height="56" rx="28" fill="#F7F7F7"/>
<path d="M22.3187 22.3051C25.4104 19.2316 30.4229 19.2316 33.5146 22.3051C36.6062 25.3785 36.6062 30.3616 33.5146 33.435L32.4822 34.6457C30.0868 37.455 25.7466 37.455 23.3511 34.6457L22.3187 33.435C19.2271 30.3616 19.2271 25.3785 22.3187 22.3051Z" fill="#FFC220"/>
<path d="M19 23.5C19 24.3284 18.3284 25 17.5 25C16.6716 25 16 24.3284 16 23.5C16 22.6716 16.6716 22 17.5 22C18.3284 22 19 22.6716 19 23.5Z" fill="#FFC220"/>
<path d="M25 17.5C25 18.3284 24.3284 19 23.5 19C22.6716 19 22 18.3284 22 17.5C22 16.6716 22.6716 16 23.5 16C24.3284 16 25 16.6716 25 17.5Z" fill="#FFC220"/>
<path d="M34 17.5C34 18.3284 33.3284 19 32.5 19C31.6716 19 31 18.3284 31 17.5C31 16.6716 31.6716 16 32.5 16C33.3284 16 34 16.6716 34 17.5Z" fill="#FFC220"/>
<path d="M40 23.5C40 24.3284 39.3284 25 38.5 25C37.6716 25 37 24.3284 37 23.5C37 22.6716 37.6716 22 38.5 22C39.3284 22 40 22.6716 40 23.5Z" fill="#FFC220"/>
<path d="M19 31.5C19 32.3284 18.3284 33 17.5 33C16.6716 33 16 32.3284 16 31.5C16 30.6716 16.6716 30 17.5 30C18.3284 30 19 30.6716 19 31.5Z" fill="#FFC220"/>
<path d="M40 31.5C40 32.3284 39.3284 33 38.5 33C37.6716 33 37 32.3284 37 31.5C37 30.6716 37.6716 30 38.5 30C39.3284 30 40 30.6716 40 31.5Z" fill="#FFC220"/>
<path d="M25 36H31V38C31 39.1046 30.1046 40 29 40H27C25.8954 40 25 39.1046 25 38V36Z" fill="#666666"/>
<circle cx="30.25" cy="28" r="3" fill="white"/>
</svg>
