<svg width="188" height="64" viewBox="0 0 188 64" fill="none" xmlns="http://www.w3.org/2000/svg">
<rect width="188" height="64" rx="32" fill="#F7F7F7"/>
<path fill-rule="evenodd" clip-rule="evenodd" d="M33.3723 16.3804C32.1094 15.6227 30.4714 16.0322 29.7137 17.2951L21.7137 30.6284C21.2194 31.4522 21.2064 32.4782 21.6798 33.3143C22.1531 34.1503 23.0396 34.6671 24.0003 34.6671H35.2905L29.7137 43.9617C28.9559 45.2246 29.3655 46.8627 30.6283 47.6204C31.8912 48.3781 33.5292 47.9686 34.287 46.7057L42.287 33.3724C42.7813 32.5486 42.7942 31.5226 42.3209 30.6865C41.8475 29.8505 40.9611 29.3337 40.0003 29.3337H28.7102L34.287 20.0391C35.0447 18.7762 34.6352 17.1382 33.3723 16.3804Z" fill="#FF5500"/>
<path d="M75.088 38.792V30.8H68.032V34.064H71.704V37.016C70.888 37.664 69.52 37.928 68.128 37.928C64.6 37.928 62.416 35.576 62.416 32.48C62.416 29.504 64.6 27.032 67.864 27.032C69.856 27.032 71.296 27.8 72.304 28.856L74.728 26.456C73.12 24.728 70.816 23.672 67.864 23.672C62.632 23.672 58.912 27.608 58.912 32.48C58.912 37.472 62.848 41.288 68.152 41.288C70.864 41.288 73.552 40.472 75.088 38.792ZM76.4007 35C76.4007 38.792 79.1847 41.264 82.7607 41.264C85.2807 41.264 87.2247 40.184 88.3287 38.576L85.8807 36.752C85.3527 37.568 84.2727 38.264 82.7847 38.264C81.2007 38.264 79.7847 37.376 79.5927 35.768H88.5687C88.6167 35.264 88.6167 34.928 88.6167 34.64C88.6167 30.752 85.8567 28.736 82.7127 28.736C79.0647 28.736 76.4007 31.448 76.4007 35ZM82.6167 31.448C83.8407 31.448 85.0407 32.12 85.3287 33.536H79.7127C80.0247 32.072 81.3927 31.448 82.6167 31.448ZM98.0087 40.88V37.976C97.6247 38.12 97.1928 38.192 96.6647 38.192C95.2487 38.192 94.6247 37.616 94.6247 36.152V31.88H98.0087V29H94.6247V25.664H91.3367V29H88.9127V31.88H91.3367V36.8C91.3367 39.728 93.3767 41.144 95.9208 41.144C96.8327 41.144 97.4808 41.048 98.0087 40.88ZM103.538 35C103.538 38.408 105.986 41.264 109.178 41.264C110.834 41.264 112.106 40.424 112.634 39.656V41H115.922V29H112.634V30.344C112.106 29.576 110.834 28.736 109.178 28.736C105.986 28.736 103.538 31.592 103.538 35ZM112.898 35C112.898 36.872 111.674 38.264 109.874 38.264C108.074 38.264 106.85 36.872 106.85 35C106.85 33.128 108.074 31.736 109.874 31.736C111.674 31.736 112.898 33.128 112.898 35ZM129.678 37.808L126.822 36.272C126.342 37.376 125.31 38.192 123.99 38.192C122.262 38.192 120.942 36.848 120.942 35C120.942 33.152 122.262 31.808 123.99 31.808C125.31 31.808 126.342 32.624 126.822 33.728L129.678 32.192C128.646 30.128 126.486 28.736 123.99 28.736C120.438 28.736 117.63 31.376 117.63 35C117.63 38.624 120.438 41.264 123.99 41.264C126.486 41.264 128.646 39.872 129.678 37.808ZM138.957 40.88V37.976C138.573 38.12 138.141 38.192 137.613 38.192C136.197 38.192 135.573 37.616 135.573 36.152V31.88H138.957V29H135.573V25.664H132.285V29H129.861V31.88H132.285V36.8C132.285 39.728 134.325 41.144 136.869 41.144C137.781 41.144 138.429 41.048 138.957 40.88ZM144.327 24.944C144.327 23.792 143.391 22.856 142.215 22.856C141.087 22.856 140.127 23.792 140.127 24.944C140.127 26.096 141.087 27.032 142.215 27.032C143.391 27.032 144.327 26.096 144.327 24.944ZM140.583 41H143.871V29H140.583V41ZM150.052 41H153.052L158.38 29H154.708L151.54 36.68L148.372 29H144.748L150.052 41ZM158.133 35C158.133 38.792 160.917 41.264 164.493 41.264C167.013 41.264 168.957 40.184 170.061 38.576L167.613 36.752C167.085 37.568 166.005 38.264 164.517 38.264C162.933 38.264 161.517 37.376 161.325 35.768H170.301C170.349 35.264 170.349 34.928 170.349 34.64C170.349 30.752 167.589 28.736 164.445 28.736C160.797 28.736 158.133 31.448 158.133 35ZM164.349 31.448C165.573 31.448 166.773 32.12 167.061 33.536H161.445C161.757 32.072 163.125 31.448 164.349 31.448Z" fill="#0E0E0E"/>
</svg>
