<svg width="24" height="24" fill="none" xmlns="http://www.w3.org/2000/svg"><path d="M11 1a1 1 0 0 1 2 0 34 34 0 0 1 2 9l-1 3 2-1a24 24 0 0 1 7-5 1 1 0 0 1 1 1 13 13 0 0 1 0 1 27 27 0 0 1-5 6l-1 2a16 16 0 0 1 5 1 1 1 0 0 1 0 2 18 18 0 0 1-5 1 12 12 0 0 1 1 1 1 1 0 0 1-1 2 11 11 0 0 1-4-1l-2-2-2 2a10 10 0 0 1-4 1 1 1 0 0 1-1-2 11 11 0 0 1 1-1 16 16 0 0 1-5-1 1 1 0 0 1 0-2 18 18 0 0 1 5-1l-1-2a24 24 0 0 1-5-7 1 1 0 0 1 1-1 12 12 0 0 1 1 0 27 27 0 0 1 6 5l2 1-1-3a31 31 0 0 1 2-9Z" fill="#94B200"/></svg>