<svg width="56" height="56" viewBox="0 0 56 56" fill="none" xmlns="http://www.w3.org/2000/svg">
<rect width="56" height="56" rx="28" fill="#F7F7F7"/>
<path fill-rule="evenodd" clip-rule="evenodd" d="M37.6531 17C38.2121 17 38.6531 17.4618 38.6531 18.0207V37.8047C38.6531 39.3443 36.9865 40.3065 35.6531 39.5367L18.7533 29.7796C17.7885 29.2226 17.4584 27.9789 18.1056 27.0721C22.4577 20.9751 29.5912 17 37.6531 17V17Z" fill="#FFC220"/>
<circle cx="33.1533" cy="25.5" r="2.5" fill="#FF5500"/>
<circle cx="28.1533" cy="30.5" r="2.5" fill="#FF5500"/>
<path d="M38.653 18.0207C38.653 17.4618 38.2119 17 37.653 17V17C29.591 17 22.4575 20.9751 18.1055 27.0721C17.4582 27.9789 17.7883 29.2226 18.7531 29.7796L20.4649 30.7679C23.9548 24.9181 30.3463 21 37.653 21C37.9883 21 38.3217 21.0083 38.653 21.0246V18.0207Z" fill="black" fill-opacity="0.1"/>
<circle cx="36.1533" cy="32.5" r="2.5" fill="#FF5500"/>
<path d="M35.9834 39.665C36.6738 38.4693 36.2641 36.9403 35.0684 36.25C33.8727 35.5596 32.3437 35.9693 31.6533 37.165L35.9834 39.665Z" fill="#FF5500"/>
</svg>
