<svg width="24" height="24" viewBox="0 0 24 24" fill="none" xmlns="http://www.w3.org/2000/svg">
<path fill-rule="evenodd" clip-rule="evenodd" d="M21.6522 1C22.2111 1 22.6522 1.46179 22.6522 2.02074V21.8047C22.6522 23.3443 20.9855 24.3065 19.6522 23.5367L2.7523 13.7796C1.78754 13.2226 1.45745 11.9789 2.10466 11.0721C6.4567 4.97506 13.5902 1 21.6522 1Z" fill="#FFC220"/>
<circle cx="17.1523" cy="9.5" r="2.5" fill="#FF5500"/>
<circle cx="12.1523" cy="14.5" r="2.5" fill="#FF5500"/>
<path d="M22.653 2.02073C22.653 1.46179 22.2119 1 21.653 1C13.591 1 6.4575 4.97506 2.10545 11.0721C1.45824 11.9789 1.78833 13.2226 2.7531 13.7796L4.46494 14.7679C7.95484 8.91813 14.3463 5 21.653 5C21.9883 5 22.3217 5.00825 22.653 5.02457V2.02073Z" fill="black" fill-opacity="0.1"/>
<circle cx="20.1523" cy="16.5" r="2.5" fill="#FF5500"/>
<path d="M19.9825 23.665C20.6728 22.4693 20.2631 20.9403 19.0674 20.25C17.8717 19.5596 16.3427 19.9693 15.6523 21.165L19.9825 23.665Z" fill="#FF5500"/>
</svg>
