<svg width="80" height="80" viewBox="0 0 80 80" fill="none" xmlns="http://www.w3.org/2000/svg">
<rect width="80" height="80" rx="40" fill="#F7F7F7"/>
<circle cx="48" cy="32" r="16" fill="#CE349A"/>
<circle cx="48" cy="32" r="16" fill="white" fill-opacity="0.8"/>
<path d="M45.3333 28.0002C45.3333 29.4729 44.1394 30.6668 42.6667 30.6668C41.1939 30.6668 40 29.4729 40 28.0002C40 26.5274 41.1939 25.3335 42.6667 25.3335C44.1394 25.3335 45.3333 26.5274 45.3333 28.0002Z" fill="black" fill-opacity="0.5"/>
<path d="M38.5858 35.9193C39.3668 35.1382 40.6332 35.1382 41.4142 35.9193C45.0514 39.5565 50.9486 39.5565 54.5858 35.9193C55.3668 35.1382 56.6332 35.1382 57.4142 35.9193C58.1953 36.7003 58.1953 37.9667 57.4142 38.7477C52.2149 43.947 43.7851 43.947 38.5858 38.7477C37.8047 37.9667 37.8047 36.7003 38.5858 35.9193Z" fill="black" fill-opacity="0.5"/>
<path d="M53.3334 30.6668C54.8062 30.6668 56.0001 29.4729 56.0001 28.0002C56.0001 26.5274 54.8062 25.3335 53.3334 25.3335C51.8607 25.3335 50.6667 26.5274 50.6667 28.0002C50.6667 29.4729 51.8607 30.6668 53.3334 30.6668Z" fill="black" fill-opacity="0.5"/>
<circle cx="32" cy="48" r="16" fill="#FFC220"/>
<path d="M29.3333 44.0002C29.3333 45.4729 28.1394 46.6668 26.6667 46.6668C25.1939 46.6668 24 45.4729 24 44.0002C24 42.5274 25.1939 41.3335 26.6667 41.3335C28.1394 41.3335 29.3333 42.5274 29.3333 44.0002Z" fill="black" fill-opacity="0.5"/>
<path d="M22.5858 51.9193C23.3668 51.1382 24.6332 51.1382 25.4142 51.9193C29.0514 55.5565 34.9486 55.5565 38.5858 51.9193C39.3668 51.1382 40.6332 51.1382 41.4142 51.9193C42.1953 52.7003 42.1953 53.9667 41.4142 54.7477C36.2149 59.947 27.7851 59.947 22.5858 54.7477C21.8047 53.9667 21.8047 52.7003 22.5858 51.9193Z" fill="black" fill-opacity="0.5"/>
<path d="M37.3334 46.6668C38.8062 46.6668 40.0001 45.4729 40.0001 44.0002C40.0001 42.5274 38.8062 41.3335 37.3334 41.3335C35.8607 41.3335 34.6667 42.5274 34.6667 44.0002C34.6667 45.4729 35.8607 46.6668 37.3334 46.6668Z" fill="black" fill-opacity="0.5"/>
</svg>
